<svg xmlns="http://www.w3.org/2000/svg" xmlns:xlink="http://www.w3.org/1999/xlink" width="30" height="25.001" viewBox="0 0 30 25.001">
  <defs>
    <clipPath id="clip-path">
      <rect id="Rectangle_149841" data-name="Rectangle 149841" width="30" height="25.001" transform="translate(4719 -23317)" fill="#1d1d1d"/>
    </clipPath>
  </defs>
  <g id="cv" transform="translate(-4719 23317)" clip-path="url(#clip-path)">
    <g id="resume" transform="translate(4725.069 -23315.629)">
      <path id="Path_12530" data-name="Path 12530" d="M79.4,25.935l-5.781-5.782A.507.507,0,0,0,73.243,20H63.8a2.11,2.11,0,0,0-2.11,2.11V40.152a2.11,2.11,0,0,0,2.11,2.11H77.442a2.11,2.11,0,0,0,2.11-2.11V26.308a.531.531,0,0,0-.155-.373Zm-1.647-.155H74.562a.791.791,0,0,1-.791-.791V21.8Zm-.309,15.427H63.8a1.055,1.055,0,0,1-1.055-1.055V22.109A1.055,1.055,0,0,1,63.8,21.054h8.916v3.935a1.846,1.846,0,0,0,1.846,1.846H78.5V40.152a1.055,1.055,0,0,1-1.057,1.055Z" transform="translate(-61.69 -19.999)" fill="#1d1d1d"/>
      <path id="Path_12531" data-name="Path 12531" d="M152.192,96.724a1.862,1.862,0,1,0-1.862-1.862A1.862,1.862,0,0,0,152.192,96.724Zm0-2.8a.942.942,0,1,1-.942.942A.942.942,0,0,1,152.192,93.919Z" transform="translate(-145.65 -88.198)" fill="#1d1d1d"/>
      <path id="Path_12532" data-name="Path 12532" d="M122.68,181.7a.46.46,0,0,0,.46-.46v-.28a1.706,1.706,0,0,1,1.7-1.7h1.062a1.706,1.706,0,0,1,1.7,1.7v.28a.46.46,0,1,0,.919,0v-.28a2.626,2.626,0,0,0-2.623-2.623h-1.062a2.626,2.626,0,0,0-2.623,2.623v.28A.46.46,0,0,0,122.68,181.7Z" transform="translate(-118.932 -168.928)" fill="#1d1d1d"/>
      <path id="Path_12533" data-name="Path 12533" d="M117.16,305.217h6.351a.464.464,0,1,0,0-.919H117.16a.464.464,0,1,0,0,.92Z" transform="translate(-113.55 -289.494)" fill="#1d1d1d"/>
      <path id="Path_12534" data-name="Path 12534" d="M126.677,357.33h-9.526a.461.461,0,1,0,0,.919h9.526a.461.461,0,1,0,0-.919Z" transform="translate(-113.552 -340.253)" fill="#1d1d1d"/>
    </g>
  </g>
</svg>
