<svg xmlns="http://www.w3.org/2000/svg" xmlns:xlink="http://www.w3.org/1999/xlink" width="30" height="25" viewBox="0 0 30 25">
  <defs>
    <clipPath id="clip-path">
      <rect id="Rectangle_147729" data-name="Rectangle 147729" width="30" height="25" fill="#1d1d1d"/>
    </clipPath>
  </defs>
  <g id="dashboard" clip-path="url(#clip-path)">
    <g id="dashboard-2" data-name="dashboard" transform="translate(5.085 2.585)">
      <path id="Path_8055" data-name="Path 8055" d="M7.643,6.61h-6.2A1.448,1.448,0,0,1,0,5.164V1.446A1.447,1.447,0,0,1,1.446,0h6.2A1.448,1.448,0,0,1,9.089,1.446V5.164A1.448,1.448,0,0,1,7.643,6.61Zm-6.2-5.371a.207.207,0,0,0-.207.207V5.164a.207.207,0,0,0,.207.207h6.2a.207.207,0,0,0,.207-.207V1.446a.207.207,0,0,0-.207-.207Zm0,0" transform="translate(0 0)" fill="#1d1d1d"/>
      <path id="Path_8056" data-name="Path 8056" d="M7.643,224.9h-6.2A1.447,1.447,0,0,1,0,223.454v-8.676a1.448,1.448,0,0,1,1.446-1.446h6.2a1.448,1.448,0,0,1,1.446,1.446v8.676A1.448,1.448,0,0,1,7.643,224.9Zm-6.2-10.328a.207.207,0,0,0-.207.207v8.676a.207.207,0,0,0,.207.207h6.2a.207.207,0,0,0,.207-.207v-8.676a.207.207,0,0,0-.207-.207Zm0,0" transform="translate(0 -205.07)" fill="#1d1d1d"/>
      <path id="Path_8057" data-name="Path 8057" d="M284.975,347.942h-6.2a1.447,1.447,0,0,1-1.446-1.446v-3.718a1.448,1.448,0,0,1,1.446-1.446h6.2a1.448,1.448,0,0,1,1.446,1.446V346.5A1.447,1.447,0,0,1,284.975,347.942Zm-6.2-5.371a.207.207,0,0,0-.207.207V346.5a.207.207,0,0,0,.207.207h6.2a.207.207,0,0,0,.207-.207v-3.718a.207.207,0,0,0-.207-.207Zm0,0" transform="translate(-266.591 -328.112)" fill="#1d1d1d"/>
      <path id="Path_8058" data-name="Path 8058" d="M284.975,11.568h-6.2a1.448,1.448,0,0,1-1.446-1.446V1.446A1.447,1.447,0,0,1,278.778,0h6.2a1.447,1.447,0,0,1,1.446,1.446v8.676A1.448,1.448,0,0,1,284.975,11.568Zm-6.2-10.328a.207.207,0,0,0-.207.207v8.676a.207.207,0,0,0,.207.207h6.2a.207.207,0,0,0,.207-.207V1.446a.207.207,0,0,0-.207-.207Zm0,0" transform="translate(-266.591 0)" fill="#1d1d1d"/>
    </g>
  </g>
</svg>
