<svg xmlns="http://www.w3.org/2000/svg" xmlns:xlink="http://www.w3.org/1999/xlink" width="30" height="25" viewBox="0 0 30 25">
  <defs>
    <clipPath id="clip-path">
      <rect id="Rectangle_149841" data-name="Rectangle 149841" width="30" height="25" transform="translate(4719 -23317)" fill="#1d1d1d"/>
    </clipPath>
  </defs>
  <g id="gift" transform="translate(-4719 23317)" clip-path="url(#clip-path)">
    <g id="Layer_2" data-name="Layer 2" transform="translate(4724.869 -23314.592)">
      <path id="Subtraction_12" data-name="Subtraction 12" d="M15.8,20.376H2.234A2.222,2.222,0,0,1,0,18.164V7.551A2.222,2.222,0,0,1,.652,5.976a2.246,2.246,0,0,1,1.588-.65H4.1L3.87,5.1a4.143,4.143,0,0,1-.533-.676,3.223,3.223,0,0,1-.081-3.173A2.563,2.563,0,0,1,5.454,0c.024,0,.049,0,.073,0h.006c.037,0,.073,0,.11,0a3.557,3.557,0,0,1,2.6,1.131,4.008,4.008,0,0,1,.645.958l.124.249.124-.246a4.224,4.224,0,0,1,.684-.961A3.557,3.557,0,0,1,12.424,0c.037,0,.073,0,.11,0h.006c.024,0,.048,0,.072,0a2.532,2.532,0,0,1,2.193,1.254,3.223,3.223,0,0,1-.081,3.173,3.723,3.723,0,0,1-.533.676l-.226.229H15.8a2.235,2.235,0,0,1,2.233,2.219V18.164A2.225,2.225,0,0,1,15.8,20.376ZM9.634,6.456h0l-.049,12.8H15.8a1.1,1.1,0,0,0,1.1-1.088V7.551a1.1,1.1,0,0,0-1.081-1.1Zm-7.394,0a1.1,1.1,0,0,0-1.109,1.1V18.164a1.082,1.082,0,0,0,.329.776,1.1,1.1,0,0,0,.775.312H8.4l.049-12.8ZM12.4,1.114a2.464,2.464,0,0,0-1.8.788A5.228,5.228,0,0,0,9.585,5.221v.132h1.023A3.318,3.318,0,0,0,13.74,3.9a2.069,2.069,0,0,0,.1-2.053l0-.006a1.4,1.4,0,0,0-1.157-.691V1.131l-.129-.011c-.025,0-.049,0-.073,0S12.424,1.114,12.4,1.114Zm-6.977,0a1.4,1.4,0,0,0-1.214.689L4.2,1.817a2.069,2.069,0,0,0,.1,2.051A3.317,3.317,0,0,0,7.432,5.332H8.456L8.45,5.189A5.214,5.214,0,0,0,7.4,1.859a2.481,2.481,0,0,0-1.765-.744c-.02,0-.042,0-.064,0a.524.524,0,0,1-.076,0l-.036,0Z" transform="translate(0)" fill="#1d1d1d"/>
    </g>
  </g>
</svg>
