<svg xmlns="http://www.w3.org/2000/svg" xmlns:xlink="http://www.w3.org/1999/xlink" width="30" height="25.001" viewBox="0 0 30 25.001">
  <defs>
    <clipPath id="clip-path">
      <rect id="Rectangle_149875" data-name="Rectangle 149875" width="30" height="25.001" transform="translate(4719 -23317)" fill="#1d1d1d"/>
    </clipPath>
  </defs>
  <g id="job" transform="translate(-4719 23317)" clip-path="url(#clip-path)">
    <path id="Union_82" data-name="Union 82" d="M2.251,17.889A1.547,1.547,0,0,1,.708,16.346V9.141l-.33-.083A.5.5,0,0,1,0,8.571V4.311A1.55,1.55,0,0,1,1.545,2.765H5.9V1.724A1.728,1.728,0,0,1,7.622,0h5a1.728,1.728,0,0,1,1.723,1.724V2.765h4.394a1.549,1.549,0,0,1,1.545,1.547V8.57a.5.5,0,0,1-.378.487l-.329.083v7.206a1.548,1.548,0,0,1-1.543,1.544Zm-.541-1.543a.543.543,0,0,0,.541.542H18.033a.542.542,0,0,0,.541-.542V9.392l-7,1.775v.741a.494.494,0,0,1-.008.092,1.02,1.02,0,0,1-1.018.935H9.7A1.019,1.019,0,0,1,8.679,12a.49.49,0,0,1-.009-.094v-.752L8.5,11.112,1.709,9.393Zm7.962-6.3v1.865a.027.027,0,0,0,.027.026h.848a.027.027,0,0,0,.027-.026V10.043a.027.027,0,0,0-.027-.026H9.7A.027.027,0,0,0,9.671,10.044Zm.874-1.028a1.031,1.031,0,0,1,1.027,1.028v.092l7.711-1.953V4.311a.546.546,0,0,0-.544-.545H1.545A.546.546,0,0,0,1,4.312V8.181L8.67,10.122v-.08A1.03,1.03,0,0,1,9.7,9.015ZM6.9,1.724V2.765h6.443V1.724A.725.725,0,0,0,12.621,1h-5A.725.725,0,0,0,6.9,1.724Z" transform="translate(4723.858 -23313.443)" fill="#1d1d1d"/>
  </g>
</svg>
