<svg xmlns="http://www.w3.org/2000/svg" xmlns:xlink="http://www.w3.org/1999/xlink" width="30" height="25" viewBox="0 0 30 25">
  <defs>
    <clipPath id="clip-path">
      <rect id="Rectangle_147729" data-name="Rectangle 147729" width="30" height="25" transform="translate(160 476)" fill="#1d1d1d"/>
    </clipPath>
  </defs>
  <g id="mailing" transform="translate(-160 -476)" clip-path="url(#clip-path)">
    <g id="mail" transform="translate(165.075 478.575)">
      <path id="Path_8921" data-name="Path 8921" d="M19.614,7.092l-2.129-1.57V2.908a.582.582,0,0,0-.582-.582H13.221L10.274.116a.582.582,0,0,0-.7,0L6.63,2.326H2.947a.582.582,0,0,0-.582.582V5.522L.236,7.092A.582.582,0,0,0,0,7.56V19.269a.582.582,0,0,0,.582.582H19.269a.582.582,0,0,0,.582-.582V7.56A.582.582,0,0,0,19.614,7.092Zm-.927.762V9.526l-1.2.6V6.967ZM9.925,1.308l1.357,1.018H8.568Zm6.4,2.181V10.7l-6.4,3.185L3.528,10.7V3.489ZM2.365,6.967v3.158l-1.2-.6V7.854Zm-1.2,11.72V10.826l8.5,4.234a.582.582,0,0,0,.518,0l8.5-4.234v7.862Z" transform="translate(0 0)" fill="#1d1d1d"/>
      <path id="Path_8922" data-name="Path 8922" d="M151.582,151.163h6.979a.582.582,0,1,0,0-1.163h-6.979a.582.582,0,0,0,0,1.163Z" transform="translate(-145.146 -144.184)" fill="#1d1d1d"/>
      <path id="Path_8923" data-name="Path 8923" d="M151.582,211.163h3.489a.582.582,0,0,0,0-1.163h-3.489a.582.582,0,0,0,0,1.163Z" transform="translate(-145.146 -201.858)" fill="#1d1d1d"/>
    </g>
  </g>
</svg>
