<svg xmlns="http://www.w3.org/2000/svg" xmlns:xlink="http://www.w3.org/1999/xlink" width="30" height="25" viewBox="0 0 30 25">
  <defs>
    <clipPath id="clip-path">
      <rect id="Rectangle_147729" data-name="Rectangle 147729" width="30" height="25" transform="translate(160 476)" fill="#1d1d1d"/>
    </clipPath>
  </defs>
  <g id="message" transform="translate(-160 -476)" clip-path="url(#clip-path)">
    <g id="Group_10504" data-name="Group 10504" transform="translate(165.833 481.834)">
      <path id="Path_5912" data-name="Path 5912" d="M263.323,248.88H248.2a1.709,1.709,0,0,0-1.708,1.7v10.475a1.711,1.711,0,0,0,1.708,1.708h15.125a1.711,1.711,0,0,0,1.708-1.708V250.58A1.709,1.709,0,0,0,263.323,248.88ZM247.957,250a.774.774,0,0,1,.242-.042h15.125a.818.818,0,0,1,.242.042l.058.033-.05.042-7.817,6.775-.025-.025-7.842-6.792Zm15.992,11.05a.624.624,0,0,1-.625.625H248.2a.619.619,0,0,1-.625-.625v-9.867l.067.058,7.767,6.725a.544.544,0,0,0,.708,0l7.833-6.783Z" transform="translate(-246.49 -248.88)" fill="#1d1d1d"/>
    </g>
  </g>
</svg>
