<svg xmlns="http://www.w3.org/2000/svg" xmlns:xlink="http://www.w3.org/1999/xlink" width="30" height="25" viewBox="0 0 30 25">
  <defs>
    <clipPath id="clip-path">
      <rect id="Rectangle_147729" data-name="Rectangle 147729" width="30" height="25" transform="translate(160 476)" fill="#1d1d1d"/>
    </clipPath>
  </defs>
  <g id="notification" transform="translate(-160 -476)" clip-path="url(#clip-path)">
    <g id="notification-2" data-name="notification" transform="translate(166.075 478.345)">
      <path id="Path_6562" data-name="Path 6562" d="M46.073,10.428v-1.9A6.16,6.16,0,0,0,41.71,2.645v-.86a1.785,1.785,0,0,0-3.57,0v.86a6.16,6.16,0,0,0-4.364,5.884v1.9a9.343,9.343,0,0,1-2.611,6.5.6.6,0,0,0,.43,1.007h5.415a2.976,2.976,0,0,0,5.831,0h5.415a.6.6,0,0,0,.43-1.007A9.343,9.343,0,0,1,46.073,10.428ZM39.329,1.785a.6.6,0,0,1,1.19,0v.624c-.2-.019-.394-.029-.6-.029s-.4.01-.6.029Zm.6,17.336a1.788,1.788,0,0,1-1.683-1.19h3.366A1.788,1.788,0,0,1,39.924,19.121Zm-7.048-2.38a10.521,10.521,0,0,0,2.089-6.313v-1.9a4.959,4.959,0,1,1,9.917,0v1.9a10.521,10.521,0,0,0,2.089,6.313Z" transform="translate(-30.999 0)" fill="#1d1d1d"/>
    </g>
  </g>
</svg>
