<svg xmlns="http://www.w3.org/2000/svg" xmlns:xlink="http://www.w3.org/1999/xlink" width="30" height="25" viewBox="0 0 30 25">
  <defs>
    <clipPath id="clip-path">
      <rect id="Rectangle_147727" data-name="Rectangle 147727" width="30" height="25" transform="translate(160 360)" fill="#1d1d1d"/>
    </clipPath>
  </defs>
  <g id="orders" transform="translate(-160 -360)" clip-path="url(#clip-path)">
    <path id="Path_6449" data-name="Path 6449" d="M1032.681,94.974l-2.168-5.3c-.075-.215-.263-.347-.641-.347H1017.4a.5.5,0,0,0-.325.329l-2.132,5.33-.016.041v.039a.414.414,0,0,0-.02.144v13.445a.456.456,0,0,0,.114.34.528.528,0,0,0,.393.181h16.8a.5.5,0,0,0,.508-.508V95.186A.471.471,0,0,0,1032.681,94.974Zm-10.3,4.764a.479.479,0,0,0,.349-.136l1.064-.712.395.307.7.412a.5.5,0,0,0,.375.107.509.509,0,0,0,.351-.214l0-.006a.548.548,0,0,0,.1-.306V95.655h5.951v12.482l-15.743-.038v-12.4h5.951V99.23A.5.5,0,0,0,1022.381,99.738Zm2.3-1.571-.563-.323a.525.525,0,0,0-.628-.012l-.579.335V95.694h1.771Zm1-3.508-.339-4.32h4.327l1.75,4.32Zm-9.506,0,1.732-4.32h4.328l-.321,4.32Zm6.775,0,.321-4.32h1.053l.321,4.32Z" transform="translate(-849.072 273.177)" fill="#1d1d1d"/>
  </g>
</svg>
