<svg xmlns="http://www.w3.org/2000/svg" xmlns:xlink="http://www.w3.org/1999/xlink" width="30" height="25" viewBox="0 0 30 25">
  <defs>
    <clipPath id="clip-path">
      <rect id="Rectangle_149873" data-name="Rectangle 149873" width="30" height="25" transform="translate(160 186)" fill="#1d1d1d"/>
    </clipPath>
  </defs>
  <g id="seller" transform="translate(-160 -186)" clip-path="url(#clip-path)">
    <g id="Group_12615" data-name="Group 12615" transform="translate(166.001 188.108)">
      <g id="Group_12614" data-name="Group 12614" transform="translate(0 0)">
        <path id="Path_12550" data-name="Path 12550" d="M78.2,9.456a.508.508,0,0,0-.508-.486H75.74V5.989A3.163,3.163,0,0,0,72.581,2.83h-.2a3.124,3.124,0,0,0-1.382.319l-.051.025-.051-.025a3.113,3.113,0,0,0-1.406-.319,3.191,3.191,0,0,0-3.135,3.205V8.97H64.2a.508.508,0,0,0-.508.486l-.613,13.487a.509.509,0,0,0,.508.532H78.3a.509.509,0,0,0,.508-.532ZM66.352,22.478H64.1l.568-12.511h1.686ZM72,3.884c.046-.049.181-.107.557-.107a2.23,2.23,0,0,1,2.189,2.212V8.97H72.67V5.989a3.124,3.124,0,0,0-.679-1.953l-.062-.079Zm-1.783,2.1a2.146,2.146,0,0,1,.648-1.542l.081-.08.081.08a2.146,2.146,0,0,1,.648,1.542V8.97H70.214Zm-2.866,0A2.16,2.16,0,0,1,69.823,3.85l.2.029-.124.157a3.124,3.124,0,0,0-.679,1.953V8.97H67.349Zm0,16.489V9.967h1.869V10.7a.5.5,0,1,0,1,0V9.967h4.529V10.7a.5.5,0,1,0,1,0V9.967h1.481l.568,12.511Z" transform="translate(-63.078 -2.83)" fill="#1d1d1d"/>
      </g>
    </g>
  </g>
</svg>
