<svg xmlns="http://www.w3.org/2000/svg" width="21" height="20" viewBox="0 0 21 20">
  <path id="basket" d="M20.8,3.993a.822.822,0,0,0-.67-.339H3.688L3.439.791A.854.854,0,0,0,2.6,0H.841a.865.865,0,1,0,0,1.731h.978l0,.05c.013.1.02.2.026.292l.384-.028h0l-.373.148.011.121.382-.049-.375.161.08.849c.072.887.189,2.241.362,4.24l.5,5.775A3.416,3.416,0,0,0,4.044,15.6l.028.023-.026.035a2.725,2.725,0,0,0-.285,2.819,2.553,2.553,0,0,0,4.474.369A2.753,2.753,0,0,0,8.544,16.4l-.017-.051h4.792l-.016.047a2.731,2.731,0,0,0,.311,2.443A2.527,2.527,0,0,0,15.743,20a2.693,2.693,0,0,0,0-5.387H6.109a1.606,1.606,0,0,1-1.486-1.032L4.6,13.536l13.831-.846a.847.847,0,0,0,.759-.652l1.759-7.323A.878.878,0,0,0,20.8,3.993ZM5.2,17.3a.937.937,0,0,1,.915-.954h.046a.964.964,0,0,1,.962.922.961.961,0,0,1-.922,1,1.02,1.02,0,0,1-.691-.254A.978.978,0,0,1,5.2,17.3Zm11.317.654a.957.957,0,0,1-.667.313.945.945,0,0,1-.693-.249.978.978,0,0,1-.315-.718.937.937,0,0,1,.909-.954H15.8a.962.962,0,0,1,.711,1.609ZM4.386,11.817l-.55-6.433H19.047L17.7,11Z" transform="translate(0.025)" fill="#fff"/>
</svg>
