<svg xmlns="http://www.w3.org/2000/svg" width="24" height="20" viewBox="0 0 24 20">
  <g id="camera" transform="translate(-196.832 -199.646)">
    <path id="Path_6563" data-name="Path 6563" d="M219.963,202.756a2.765,2.765,0,0,0-2.066-.914h-3.389a2.423,2.423,0,0,0-.677-1.468,2.282,2.282,0,0,0-1.666-.727H205.5a2.3,2.3,0,0,0-1.687.727,2.506,2.506,0,0,0-.674,1.468h-3.371a2.762,2.762,0,0,0-2.066.914,3.18,3.18,0,0,0-.869,2.172v11.633a3.055,3.055,0,0,0,.869,2.172,2.881,2.881,0,0,0,2.066.913H217.9a2.762,2.762,0,0,0,2.066-.913,3.187,3.187,0,0,0,.869-2.172V204.928A3.054,3.054,0,0,0,219.963,202.756Zm-6.332.983h4.289a1.082,1.082,0,0,1,.8.347,1.2,1.2,0,0,1,.331.842l-.022,11.633a1.192,1.192,0,0,1-.331.841,1.08,1.08,0,0,1-.8.348H199.767a1.082,1.082,0,0,1-.8-.347,1.2,1.2,0,0,1-.33-.842V204.928a1.2,1.2,0,0,1,.33-.842,1.082,1.082,0,0,1,.8-.347h4.288a.939.939,0,0,0,.914-.96V202.1a.6.6,0,0,1,.152-.421.545.545,0,0,1,.4-.16h6.643a.542.542,0,0,1,.4.16.605.605,0,0,1,.153.421v.678A.939.939,0,0,0,213.631,203.738Z" transform="translate(0 0)" fill="#e2000f"/>
    <path id="Path_6564" data-name="Path 6564" d="M209.882,205.813a5.286,5.286,0,0,0-3.712,1.537,5.212,5.212,0,0,0-1.536,3.712,5.288,5.288,0,0,0,1.536,3.713,5.215,5.215,0,0,0,3.712,1.536,5.289,5.289,0,0,0,3.712-1.536,5.218,5.218,0,0,0,1.536-3.713,5.247,5.247,0,0,0-5.249-5.25Zm3.522,5.275a3.41,3.41,0,0,1-1.025,2.487,3.632,3.632,0,0,1-4.993,0,3.5,3.5,0,0,1-1.027-2.495,3.572,3.572,0,0,1,1.027-2.5,3.5,3.5,0,0,1,2.5-1.027,3.576,3.576,0,0,1,2.5,1.027A3.507,3.507,0,0,1,213.4,211.088Z" transform="translate(-1.05 -0.292)" fill="#e2000f"/>
    <path id="Path_6565" data-name="Path 6565" d="M218.513,208.345a1.443,1.443,0,1,0-1.443-1.443A1.446,1.446,0,0,0,218.513,208.345Z" transform="translate(-2.516 -0.388)" fill="#e2000f"/>
  </g>
</svg>
