<svg xmlns="http://www.w3.org/2000/svg" xmlns:xlink="http://www.w3.org/1999/xlink" width="24" height="24" viewBox="0 0 24 24">
  <defs>
    <clipPath id="clip-path">
      <rect id="Rectangle_148335" data-name="Rectangle 148335" width="24" height="24" transform="translate(0.1)" fill="#fff"/>
    </clipPath>
  </defs>
  <g id="cancel" transform="translate(-0.1)" clip-path="url(#clip-path)">
    <g id="close_1_" data-name="close (1)" transform="translate(2.471 2.471)">
      <path id="Path_6841" data-name="Path 6841" d="M9.529,19.059a9.529,9.529,0,1,1,9.529-9.529A9.54,9.54,0,0,1,9.529,19.059Zm0-17.7A8.168,8.168,0,1,0,17.7,9.529,8.177,8.177,0,0,0,9.529,1.361Zm0,0"/>
      <path id="Path_6842" data-name="Path 6842" d="M153.774,154.456a.678.678,0,0,1-.481-.2l-6.807-6.807a.681.681,0,1,1,.962-.962l6.807,6.807a.681.681,0,0,1-.481,1.162Zm0,0" transform="translate(-140.842 -140.843)"/>
      <path id="Path_6843" data-name="Path 6843" d="M146.966,154.455a.681.681,0,0,1-.481-1.162l6.807-6.807a.681.681,0,1,1,.962.962l-6.807,6.807A.678.678,0,0,1,146.966,154.455Zm0,0" transform="translate(-140.841 -140.841)"/>
    </g>
  </g>
</svg>
