<svg xmlns="http://www.w3.org/2000/svg" width="20" height="11" viewBox="0 0 20 11">
  <g id="check" transform="translate(-611.857 41.043)">
    <path id="Path_5437" data-name="Path 5437" d="M625.724-40.815a.8.8,0,0,0-1.116,0l-8.186,8.951-3.249-3.162a.785.785,0,0,0-.539-.212h-.014a.777.777,0,0,0-.544.23.739.739,0,0,0,0,1.05l3.8,3.694a.785.785,0,0,0,.549.221.787.787,0,0,0,.549-.221l8.734-9.483A.741.741,0,0,0,625.724-40.815Z" transform="translate(0)" fill="#2463bf"/>
    <path id="Path_5438" data-name="Path 5438" d="M631.493-39.743l-8.65,9.482a.778.778,0,0,1-.55.216.772.772,0,0,1-.54-.216l-1.92-1.887,1.08-1.071,1.38,1.356,8.11-8.951a.8.8,0,0,1,1.11,0A.759.759,0,0,1,631.493-39.743Z" transform="translate(0.133)" fill="#2463bf"/>
  </g>
</svg>
