<svg xmlns="http://www.w3.org/2000/svg" xmlns:xlink="http://www.w3.org/1999/xlink" width="36" height="30" viewBox="0 0 36 30">
  <defs>
    <clipPath id="clip-path">
      <rect id="Rectangle_149841" data-name="Rectangle 149841" width="36" height="30" transform="translate(4719 -23317)" fill="#1d1d1d"/>
    </clipPath>
  </defs>
  <g id="cv" transform="translate(-4719 23317)" clip-path="url(#clip-path)">
    <g id="resume" transform="translate(4664.593 -23335.355)">
      <path id="Path_12530" data-name="Path 12530" d="M82.94,27.122,76,20.184A.608.608,0,0,0,75.554,20H64.222a2.532,2.532,0,0,0-2.532,2.532V44.182a2.532,2.532,0,0,0,2.532,2.532H80.593a2.532,2.532,0,0,0,2.532-2.532V27.57a.638.638,0,0,0-.186-.448Zm-1.976-.185H77.137a.95.95,0,0,1-.95-.95V22.16Zm-.371,18.512H64.224a1.266,1.266,0,0,1-1.266-1.266V22.531a1.266,1.266,0,0,1,1.266-1.266h10.7v4.722A2.216,2.216,0,0,0,77.139,28.2h4.722V44.182a1.266,1.266,0,0,1-1.268,1.266Z" fill="#1d1d1d"/>
      <path id="Path_12531" data-name="Path 12531" d="M152.564,97.469a2.234,2.234,0,1,0-2.234-2.234A2.234,2.234,0,0,0,152.564,97.469Zm0-3.365a1.131,1.131,0,1,1-1.131,1.131A1.131,1.131,0,0,1,152.564,94.1Z" transform="translate(-83.024 -67.239)" fill="#1d1d1d"/>
      <path id="Path_12532" data-name="Path 12532" d="M122.772,182.376a.552.552,0,0,0,.552-.552v-.337a2.047,2.047,0,0,1,2.044-2.044h1.274a2.047,2.047,0,0,1,2.045,2.044v.337a.552.552,0,0,0,1.1,0v-.337a3.152,3.152,0,0,0-3.148-3.148h-1.274a3.152,3.152,0,0,0-3.148,3.148v.337A.552.552,0,0,0,122.772,182.376Z" transform="translate(-56.585 -147.047)" fill="#1d1d1d"/>
      <path id="Path_12533" data-name="Path 12533" d="M117.265,305.4h7.622a.556.556,0,1,0,0-1.1h-7.622a.556.556,0,1,0,0,1.1Z" transform="translate(-51.243 -266.534)" fill="#1d1d1d"/>
      <path id="Path_12534" data-name="Path 12534" d="M128.683,357.33H117.252a.554.554,0,1,0,0,1.1h11.431a.554.554,0,1,0,0-1.1Z" transform="translate(-51.243 -316.839)" fill="#1d1d1d"/>
    </g>
  </g>
</svg>
