<svg xmlns="http://www.w3.org/2000/svg" xmlns:xlink="http://www.w3.org/1999/xlink" width="24" height="24" viewBox="0 0 24 24">
  <defs>
    <clipPath id="clip-path">
      <rect id="Rectangle_148935" data-name="Rectangle 148935" width="24" height="24" transform="translate(28 450)" fill="#fff"/>
    </clipPath>
  </defs>
  <g id="followers" transform="translate(-28 -450)" clip-path="url(#clip-path)">
    <g id="Group_11548" data-name="Group 11548" transform="translate(0.501)">
      <g id="Group_11547" data-name="Group 11547" transform="translate(27.5 450.5)">
        <path id="Union_35" data-name="Union 35" d="M-6976.5,19354.148v-2a3.339,3.339,0,0,0-.7-2.045,3.359,3.359,0,0,0-1.812-1.2.651.651,0,0,1-.466-.791.651.651,0,0,1,.632-.486.562.562,0,0,1,.16.02,4.681,4.681,0,0,1,2.511,1.656,4.63,4.63,0,0,1,.977,2.842v2a.651.651,0,0,1-.651.652A.651.651,0,0,1-6976.5,19354.148Zm-6,0v-2a3.321,3.321,0,0,0-.981-2.365,3.3,3.3,0,0,0-2.365-.982h-8a3.307,3.307,0,0,0-2.37.982,3.321,3.321,0,0,0-.981,2.365v2a.651.651,0,0,1-.651.652.651.651,0,0,1-.651-.652v-2a4.6,4.6,0,0,1,1.365-3.283,4.6,4.6,0,0,1,3.288-1.365h8a4.6,4.6,0,0,1,3.283,1.365,4.6,4.6,0,0,1,1.365,3.283v2a.651.651,0,0,1-.651.652A.651.651,0,0,1-6982.5,19354.148Zm-12-14a4.652,4.652,0,0,1,4.649-4.648,4.652,4.652,0,0,1,4.648,4.648,4.652,4.652,0,0,1-4.648,4.648A4.652,4.652,0,0,1-6994.5,19340.15Zm1.3,0a3.358,3.358,0,0,0,3.352,3.352,3.358,3.358,0,0,0,3.352-3.352,3.358,3.358,0,0,0-3.352-3.352A3.358,3.358,0,0,0-6993.2,19340.15Zm9.72,4.041a.661.661,0,0,1,.073-.49.638.638,0,0,1,.4-.3,3.387,3.387,0,0,0,1.817-1.191,3.38,3.38,0,0,0,.7-2.055,3.384,3.384,0,0,0-.7-2.055,3.394,3.394,0,0,0-1.817-1.189.638.638,0,0,1-.4-.3.661.661,0,0,1-.073-.49.655.655,0,0,1,.632-.486.645.645,0,0,1,.16.02,4.656,4.656,0,0,1,2.521,1.652,4.664,4.664,0,0,1,.976,2.85,4.666,4.666,0,0,1-.976,2.852,4.656,4.656,0,0,1-2.521,1.652.645.645,0,0,1-.16.02A.655.655,0,0,1-6983.482,19344.191Z" transform="translate(6998.85 -19333.15)" fill="#fff"/>
      </g>
    </g>
  </g>
</svg>
