<svg xmlns="http://www.w3.org/2000/svg" xmlns:xlink="http://www.w3.org/1999/xlink" width="24" height="24" viewBox="0 0 24 24">
  <defs>
    <clipPath id="clip-path">
      <rect id="Rectangle_148909" data-name="Rectangle 148909" width="24" height="24" transform="translate(1034 509)" fill="#9d9d9d"/>
    </clipPath>
  </defs>
  <g id="cancel" transform="translate(-1034 -509)" clip-path="url(#clip-path)">
    <g id="cancel-2" data-name="cancel" transform="translate(1036 510.994)">
      <g id="Group_11398" data-name="Group 11398" transform="translate(0 0.005)">
        <path id="Path_8677" data-name="Path 8677" d="M17.074,2.931a10,10,0,1,0,0,14.149A10.016,10.016,0,0,0,17.074,2.931ZM14.126,12.953a.834.834,0,1,1-1.179,1.179L10,11.184,7.054,14.131a.834.834,0,1,1-1.179-1.179L8.821,10,5.874,7.057A.834.834,0,0,1,7.053,5.879L10,8.826l2.947-2.947a.834.834,0,0,1,1.179,1.179L11.179,10Z" transform="translate(0 -0.005)" fill="#9d9d9d"/>
      </g>
    </g>
  </g>
</svg>
