<svg id="instagram" xmlns="http://www.w3.org/2000/svg" width="24" height="24" viewBox="0 0 24 24">
  <path id="Path_6066" data-name="Path 6066" d="M17.5,0H6.5A6.5,6.5,0,0,0,0,6.5V17.5A6.5,6.5,0,0,0,6.5,24H17.5A6.5,6.5,0,0,0,24,17.5V6.5A6.5,6.5,0,0,0,17.5,0Zm5.09,17.5a5.1,5.1,0,0,1-5.09,5.089H6.5A5.1,5.1,0,0,1,1.406,17.5V6.5A5.1,5.1,0,0,1,6.5,1.407H17.5A5.1,5.1,0,0,1,22.592,6.5Zm0,0" transform="translate(0.001 0)" fill="#1d1d1d"/>
  <path id="Path_6067" data-name="Path 6067" d="M122.366,116a6.362,6.362,0,1,0,6.362,6.362A6.369,6.369,0,0,0,122.366,116Zm0,11.36a5,5,0,1,1,5-5A5,5,0,0,1,122.366,127.364Zm0,0" transform="translate(-110.366 -110.366)" fill="#1d1d1d"/>
  <path id="Path_6068" data-name="Path 6068" d="M359.913,66.285a1.936,1.936,0,1,0,1.936,1.936A1.938,1.938,0,0,0,359.913,66.285Zm0,2.467a.531.531,0,1,1,.531-.531A.532.532,0,0,1,359.913,68.753Zm0,0" transform="translate(-341.185 -63.183)" fill="#1d1d1d"/>
</svg>
