<svg xmlns="http://www.w3.org/2000/svg" width="27" height="24" viewBox="0 0 27 24">
  <g id="like" transform="translate(0 -29.836)">
    <g id="Group_3823" data-name="Group 3823" transform="translate(0 29.836)">
      <path id="Path_4129" data-name="Path 4129" d="M25.03,32.194a6.776,6.776,0,0,0-10.858.786,10.428,10.428,0,0,0-.672,1.1,10.418,10.418,0,0,0-.672-1.1A6.776,6.776,0,0,0,1.97,32.194,8.265,8.265,0,0,0,0,37.663a10.116,10.116,0,0,0,2.76,6.616,61.608,61.608,0,0,0,6.908,6.494c1.045.9,2.125,1.822,3.276,2.835l.035.03a.787.787,0,0,0,1.042,0l.035-.03c1.15-1.013,2.231-1.939,3.276-2.835a61.6,61.6,0,0,0,6.908-6.494A10.116,10.116,0,0,0,27,37.663,8.265,8.265,0,0,0,25.03,32.194ZM16.305,49.562c-.9.772-1.828,1.567-2.805,2.422-.977-.855-1.9-1.65-2.805-2.422-5.487-4.7-9.113-7.813-9.113-11.9a6.67,6.67,0,0,1,1.575-4.417,5.266,5.266,0,0,1,4.015-1.818A5.327,5.327,0,0,1,11.537,33.9a9.46,9.46,0,0,1,1.211,2.423.79.79,0,0,0,1.5,0A9.461,9.461,0,0,1,15.463,33.9a5.327,5.327,0,0,1,4.365-2.472,5.266,5.266,0,0,1,4.015,1.818,6.67,6.67,0,0,1,1.575,4.417C25.418,41.749,21.793,44.857,16.305,49.562Z" transform="translate(0 -29.836)" fill="#9d9d9d"/>
    </g>
  </g>
</svg>
