<svg xmlns="http://www.w3.org/2000/svg" xmlns:xlink="http://www.w3.org/1999/xlink" width="24" height="24" viewBox="0 0 24 24">
  <defs>
    <clipPath id="clip-path">
      <rect id="Rectangle_148500" data-name="Rectangle 148500" width="24" height="24" transform="translate(1316 643)" fill="#a1a1a1"/>
    </clipPath>
  </defs>
  <g id="mail" transform="translate(-1316 -643)" clip-path="url(#clip-path)">
    <g id="mail-2" data-name="mail" transform="translate(1318 572)">
      <g id="Group_11292" data-name="Group 11292" transform="translate(0 76)">
        <path id="Path_8287" data-name="Path 8287" d="M18.242,76H1.758A1.757,1.757,0,0,0,0,77.75v10.5A1.757,1.757,0,0,0,1.758,90H18.242A1.756,1.756,0,0,0,20,88.25V77.75A1.756,1.756,0,0,0,18.242,76ZM18,77.167l-6.753,6.688a1.763,1.763,0,0,1-2.487,0L2,77.167ZM1.172,88.013V77.988L6.236,83ZM2,88.833l5.062-5.007.862.853a2.939,2.939,0,0,0,4.142,0l.863-.854L18,88.833Zm16.823-.821L13.764,83l5.064-5.015Z" transform="translate(0 -76)" fill="#1d1d1d"/>
      </g>
    </g>
  </g>
</svg>
