<svg xmlns="http://www.w3.org/2000/svg" xmlns:xlink="http://www.w3.org/1999/xlink" width="24" height="24" viewBox="0 0 24 24">
  <defs>
    <clipPath id="clip-path">
      <rect id="Rectangle_147868" data-name="Rectangle 147868" width="24" height="24" transform="translate(1132 306)" fill="#fff"/>
    </clipPath>
  </defs>
  <g id="phone" transform="translate(-1132 -306)" clip-path="url(#clip-path)">
    <g id="phone-call" transform="translate(1133.656 280.594)">
      <g id="Group_10468" data-name="Group 10468" transform="translate(0.344 27.406)">
        <path id="Path_6545" data-name="Path 6545" d="M17.181,39.328a2.1,2.1,0,0,0-1.521-.694,2.173,2.173,0,0,0-1.539.69L12.7,40.735c-.117-.063-.234-.121-.347-.179-.162-.081-.315-.157-.446-.237a15.432,15.432,0,0,1-3.7-3.36,9.072,9.072,0,0,1-1.215-1.909c.369-.336.711-.685,1.044-1.022.126-.125.252-.255.378-.381a2.05,2.05,0,0,0,0-3.1L7.181,29.324c-.14-.139-.284-.282-.419-.426-.27-.278-.554-.565-.846-.833a2.135,2.135,0,0,0-1.508-.659,2.209,2.209,0,0,0-1.53.659l-.009.009L1.34,29.61a3.272,3.272,0,0,0-.977,2.083,7.823,7.823,0,0,0,.576,3.324,19.273,19.273,0,0,0,3.443,5.717,21.165,21.165,0,0,0,7.052,5.5,11.024,11.024,0,0,0,3.96,1.165c.095,0,.194.009.284.009a3.4,3.4,0,0,0,2.6-1.111c0-.009.014-.013.018-.022a10.207,10.207,0,0,1,.788-.811c.194-.184.392-.376.585-.578a2.23,2.23,0,0,0,.68-1.55,2.149,2.149,0,0,0-.693-1.537Zm1.611,4.718s0,0,0,0c-.176.188-.356.358-.549.547a11.8,11.8,0,0,0-.869.9,2.174,2.174,0,0,1-1.692.712c-.068,0-.14,0-.207,0a9.793,9.793,0,0,1-3.51-1.048,19.978,19.978,0,0,1-6.642-5.179A18.173,18.173,0,0,1,2.082,34.6a6.372,6.372,0,0,1-.5-2.8A2.053,2.053,0,0,1,2.2,30.462l1.535-1.528a1.025,1.025,0,0,1,.684-.318.964.964,0,0,1,.657.314l.014.013c.275.255.536.52.81.8.14.143.284.287.428.435L7.555,31.4a.853.853,0,0,1,0,1.389c-.131.13-.257.26-.387.385-.378.385-.738.744-1.13,1.093-.009.009-.018.013-.023.022a.911.911,0,0,0-.234,1.017l.014.04a9.812,9.812,0,0,0,1.454,2.361l0,0a16.492,16.492,0,0,0,4,3.62,6.152,6.152,0,0,0,.554.3c.162.081.315.157.446.237.018.009.036.022.054.031a.979.979,0,0,0,.446.112.964.964,0,0,0,.684-.309l1.539-1.532a1.02,1.02,0,0,1,.68-.336.918.918,0,0,1,.648.327l.009.009,2.48,2.469A.883.883,0,0,1,18.792,44.046Z" transform="translate(-0.344 -27.406)" fill="#1d1d1d"/>
      </g>
    </g>
  </g>
</svg>
