<svg xmlns="http://www.w3.org/2000/svg" xmlns:xlink="http://www.w3.org/1999/xlink" width="24" height="24" viewBox="0 0 24 24">
  <defs>
    <clipPath id="clip-path">
      <rect id="Rectangle_147866" data-name="Rectangle 147866" width="24" height="24" transform="translate(1316 680)" fill="#e2000f"/>
    </clipPath>
  </defs>
  <g id="pni" transform="translate(-1316 -680)" clip-path="url(#clip-path)">
    <g id="pin" transform="translate(1272.801 682)">
      <path id="Path_6541" data-name="Path 6541" d="M55.2,0a8.018,8.018,0,0,0-8,8.017,7.871,7.871,0,0,0,.142,1.506c0,.029.021.117.055.268a7.85,7.85,0,0,0,.535,1.58,22.45,22.45,0,0,0,6.913,8.5.564.564,0,0,0,.711,0,22.5,22.5,0,0,0,6.913-8.5A7.76,7.76,0,0,0,63,9.79c.033-.151.05-.239.055-.268A8.344,8.344,0,0,0,63.2,8.017,8.029,8.029,0,0,0,55.2,0Zm6.741,9.325c0,.008,0,.017,0,.025s-.017.085-.038.181v.009a6.684,6.684,0,0,1-.464,1.366l-.008.017A20.971,20.971,0,0,1,55.2,18.705a20.971,20.971,0,0,1-6.227-7.783l-.008-.017A7.089,7.089,0,0,1,48.5,9.539V9.53a1.747,1.747,0,0,1-.037-.181c0-.008,0-.017,0-.029a6.867,6.867,0,1,1,13.483,0Z" transform="translate(0 0)" fill="#e2000f"/>
      <path id="Path_6542" data-name="Path 6542" d="M54.847,3.523a3.87,3.87,0,1,0,3.869,3.87A3.873,3.873,0,0,0,54.847,3.523Zm2.637,3.87a2.637,2.637,0,1,1-2.637-2.638A2.641,2.641,0,0,1,57.484,7.393Z" transform="translate(0.349 0.402)" fill="#e2000f"/>
    </g>
  </g>
</svg>
