<svg xmlns="http://www.w3.org/2000/svg" width="24" height="24" viewBox="0 0 24 24">
  <g id="telegram" transform="translate(-776 -900)">
    <path id="Path_6512" data-name="Path 6512" d="M17.5,0H6.5A6.5,6.5,0,0,0,0,6.5V17.5A6.5,6.5,0,0,0,6.5,24H17.5A6.5,6.5,0,0,0,24,17.5V6.5A6.5,6.5,0,0,0,17.5,0Zm5.09,17.5a5.1,5.1,0,0,1-5.09,5.089H6.5A5.1,5.1,0,0,1,1.406,17.5V6.5A5.1,5.1,0,0,1,6.5,1.407H17.5A5.1,5.1,0,0,1,22.592,6.5Zm0,0" transform="translate(776.001 900)" fill="#1d1d1d"/>
    <path id="telegram-2" data-name="telegram" d="M14.688.346A.969.969,0,0,0,13.92,0a1.508,1.508,0,0,0-.536.107L.755,4.927c-.67.256-.76.64-.755.846s.118.584.8.8l.012,0,2.62.75L4.85,11.379a1.223,1.223,0,0,0,1.132.9,1.339,1.339,0,0,0,.906-.386L8.507,10.4l2.35,1.892h0l.022.018.006,0a1.357,1.357,0,0,0,.825.31h0a1.158,1.158,0,0,0,1.1-1.026L14.885,1.379a1.22,1.22,0,0,0-.2-1.033ZM4.31,7.186,9.363,4.6,6.217,7.948a.436.436,0,0,0-.106.195L5.5,10.6Z" transform="translate(780.004 905.542)" fill="#1d1d1d"/>
  </g>
</svg>
