<svg id="whatsapp" xmlns="http://www.w3.org/2000/svg" width="24" height="24" viewBox="0 0 24 24">
  <path id="Path_4081" data-name="Path 4081" d="M628.455,374.4l-.008.077c-2.031-1.125-2.243-1.27-2.5-.834-.185.307-.712.986-.872,1.188s-.322.215-.6.077a7.4,7.4,0,0,1-2.216-1.518,9.162,9.162,0,0,1-1.532-2.116c-.271-.517.3-.591.811-1.671a.62.62,0,0,0-.023-.536c-.069-.153-.62-1.656-.851-2.255s-.45-.521-.62-.521a1.282,1.282,0,0,0-1.263.352c-1.49,1.814-1.114,3.68.161,5.674,2.506,3.631,3.841,4.3,6.278,5.228a3.454,3.454,0,0,0,1.736.124,2.867,2.867,0,0,0,1.865-1.458,2.784,2.784,0,0,0,.166-1.457c-.068-.138-.249-.215-.526-.353Z" transform="translate(-611.363 -360.042)" fill="#63c059"/>
  <path id="Path_4082" data-name="Path 4082" d="M632.353,363.367c-7.689-7.433-20.414-2.042-20.42,8.444a11.82,11.82,0,0,0,1.6,5.945l-1.7,6.162,6.335-1.652a11.971,11.971,0,0,0,17.665-10.448,11.8,11.8,0,0,0-3.495-8.411Zm1.48,8.417a9.956,9.956,0,0,1-15.01,8.5l-.36-.214-3.75.975,1.005-3.645-.239-.375a9.918,9.918,0,0,1,15.447-12.235A9.794,9.794,0,0,1,633.833,371.784Z" transform="translate(-611.833 -359.917)" fill="#63c059"/>
</svg>
