<svg xmlns="http://www.w3.org/2000/svg" width="24" height="24" viewBox="0 0 24 24">
  <g id="facebook" transform="translate(0.002)">
    <path id="Path_6069" data-name="Path 6069" d="M17.5,0H6.5A6.5,6.5,0,0,0,0,6.5V17.5A6.5,6.5,0,0,0,6.5,24H17.5A6.5,6.5,0,0,0,24,17.5V6.5A6.5,6.5,0,0,0,17.5,0Zm5.09,17.5a5.1,5.1,0,0,1-5.09,5.089H6.5A5.1,5.1,0,0,1,1.406,17.5V6.5A5.1,5.1,0,0,1,6.5,1.407H17.5A5.1,5.1,0,0,1,22.592,6.5Zm0,0" transform="translate(0.001 0)" fill="#1d1d1d"/>
    <g id="facebook-app-symbol" transform="translate(8.619 4.994)">
      <path id="f_1_" d="M42.013,14.013V7.621h2.144l.322-2.492H42.013V3.539c0-.721.2-1.213,1.235-1.213h1.318V.1A17.875,17.875,0,0,0,42.645,0a3,3,0,0,0-3.2,3.292V5.13H37.29V7.621h2.151v6.391Z" transform="translate(-37.29 0)" fill="#1d1d1d"/>
    </g>
  </g>
</svg>
