<svg xmlns="http://www.w3.org/2000/svg" width="24" height="24" viewBox="0 0 24 24">
  <g id="twitter" transform="translate(11643 -170)">
    <path id="Path_6100" data-name="Path 6100" d="M17.5,0H6.5A6.5,6.5,0,0,0,0,6.5V17.5A6.5,6.5,0,0,0,6.5,24H17.5A6.5,6.5,0,0,0,24,17.5V6.5A6.5,6.5,0,0,0,17.5,0Zm5.09,17.5a5.1,5.1,0,0,1-5.09,5.089H6.5A5.1,5.1,0,0,1,1.406,17.5V6.5A5.1,5.1,0,0,1,6.5,1.407H17.5A5.1,5.1,0,0,1,22.592,6.5Zm0,0" transform="translate(-11642.999 170)" fill="#1d1d1d"/>
    <path id="twitter_1_" data-name="twitter (1)" d="M12.562,5.243A5.913,5.913,0,0,0,14,3.671h0a5.752,5.752,0,0,1-1.654.478,2.988,2.988,0,0,0,1.263-1.673,5.565,5.565,0,0,1-1.82.733,2.808,2.808,0,0,0-2.1-.958A2.951,2.951,0,0,0,6.824,5.278a3.283,3.283,0,0,0,.067.69A8,8,0,0,1,.975,2.8a3.183,3.183,0,0,0-.393,1.53A3.078,3.078,0,0,0,1.857,6.848a2.725,2.725,0,0,1-1.3-.373v.033a3.007,3.007,0,0,0,2.3,2.975,2.714,2.714,0,0,1-.753.1,2.4,2.4,0,0,1-.543-.052,2.923,2.923,0,0,0,2.682,2.11A5.581,5.581,0,0,1,.687,12.932,5.149,5.149,0,0,1,0,12.891,7.78,7.78,0,0,0,4.4,14.25c5.065,0,8.366-4.458,8.159-9.007Z" transform="translate(-11638 173.75)" fill="#1d1d1d"/>
  </g>
</svg>
